<mxfile host="app.diagrams.net" modified="2023-03-23T13:47:34.242Z" agent="5.0 (Windows NT 10.0; Win64; x64) AppleWebKit/537.36 (KHTML, like Gecko) Chrome/111.0.0.0 Safari/537.36" etag="Is-ZnZBr0sJmCbmw72RC" version="21.0.7" type="github">
  <diagram name="第 1 页" id="bB0GKyguH6wCHHhDE2Hv">
    <mxGraphModel dx="1590" dy="763" grid="0" gridSize="10" guides="1" tooltips="1" connect="1" arrows="1" fold="1" page="1" pageScale="1" pageWidth="827" pageHeight="1169" math="0" shadow="0">
      <root>
        <mxCell id="0" />
        <mxCell id="1" parent="0" />
        <mxCell id="rDefNeOe9VdLaESxxnFH-26" value="" style="group;fontFamily=Comic Sans MS;" parent="1" vertex="1" connectable="0">
          <mxGeometry x="-32" y="591" width="90" height="169" as="geometry" />
        </mxCell>
        <mxCell id="rDefNeOe9VdLaESxxnFH-23" value="" style="group;fontFamily=Comic Sans MS;" parent="rDefNeOe9VdLaESxxnFH-26" vertex="1" connectable="0">
          <mxGeometry x="4.5" y="26" width="84" height="143" as="geometry" />
        </mxCell>
        <mxCell id="rDefNeOe9VdLaESxxnFH-1" value="&lt;div style=&quot;background-color: rgb(255, 255, 254); font-size: 14px; line-height: 19px;&quot;&gt;&lt;br&gt;&lt;/div&gt;" style="rounded=0;whiteSpace=wrap;html=1;fontFamily=Comic Sans MS;" parent="rDefNeOe9VdLaESxxnFH-23" vertex="1">
          <mxGeometry width="81" height="143" as="geometry" />
        </mxCell>
        <mxCell id="rDefNeOe9VdLaESxxnFH-10" value="bigint&lt;br style=&quot;font-size: 12px;&quot;&gt;string&lt;br style=&quot;font-size: 12px;&quot;&gt;number&lt;br style=&quot;font-size: 12px;&quot;&gt;boolean&lt;br style=&quot;font-size: 12px;&quot;&gt;sybmol&lt;br style=&quot;font-size: 12px;&quot;&gt;null&lt;br style=&quot;font-size: 12px;&quot;&gt;undefined" style="text;html=1;align=center;verticalAlign=middle;resizable=0;points=[];autosize=1;strokeColor=none;fillColor=none;fontSize=12;fontFamily=Comic Sans MS;" parent="rDefNeOe9VdLaESxxnFH-23" vertex="1">
          <mxGeometry x="4" y="24" width="74" height="113" as="geometry" />
        </mxCell>
        <mxCell id="rDefNeOe9VdLaESxxnFH-22" value="&lt;font style=&quot;font-size: 16px;&quot;&gt;Primitive&lt;/font&gt;" style="text;html=1;align=center;verticalAlign=middle;resizable=0;points=[];autosize=1;strokeColor=none;fillColor=none;fontSize=14;fontFamily=Comic Sans MS;" parent="rDefNeOe9VdLaESxxnFH-23" vertex="1">
          <mxGeometry y="-1" width="84" height="31" as="geometry" />
        </mxCell>
        <mxCell id="rDefNeOe9VdLaESxxnFH-25" value="七种原始类型" style="text;html=1;align=center;verticalAlign=middle;resizable=0;points=[];autosize=1;strokeColor=none;fillColor=none;fontSize=12;fontFamily=Comic Sans MS;" parent="rDefNeOe9VdLaESxxnFH-26" vertex="1">
          <mxGeometry width="90" height="26" as="geometry" />
        </mxCell>
        <mxCell id="rDefNeOe9VdLaESxxnFH-31" value="&lt;div style=&quot;background-color: rgb(255, 255, 254); font-size: 12px; line-height: 19px;&quot;&gt;&lt;br style=&quot;font-size: 12px;&quot;&gt;&lt;/div&gt;" style="text;html=1;align=center;verticalAlign=middle;resizable=0;points=[];autosize=1;strokeColor=none;fillColor=none;fontSize=12;fontFamily=Comic Sans MS;" parent="1" vertex="1">
          <mxGeometry x="394.5" y="1166" width="18" height="31" as="geometry" />
        </mxCell>
        <mxCell id="rDefNeOe9VdLaESxxnFH-82" value="" style="group;fontFamily=Comic Sans MS;" parent="1" vertex="1" connectable="0">
          <mxGeometry x="93" y="764" width="357" height="118" as="geometry" />
        </mxCell>
        <mxCell id="rDefNeOe9VdLaESxxnFH-71" value="" style="rounded=0;whiteSpace=wrap;html=1;fontFamily=Comic Sans MS;" parent="rDefNeOe9VdLaESxxnFH-82" vertex="1">
          <mxGeometry width="356.49718309859156" height="118" as="geometry" />
        </mxCell>
        <mxCell id="rDefNeOe9VdLaESxxnFH-72" value="&lt;div style=&quot;background-color: rgb(255, 255, 254); font-size: 14px; line-height: 19px;&quot;&gt;&lt;br&gt;&lt;/div&gt;" style="text;html=1;align=center;verticalAlign=middle;resizable=0;points=[];autosize=1;strokeColor=none;fillColor=none;fontSize=12;fontFamily=Comic Sans MS;" parent="rDefNeOe9VdLaESxxnFH-82" vertex="1">
          <mxGeometry x="44.24788732394366" y="57" width="18" height="31" as="geometry" />
        </mxCell>
        <mxCell id="rDefNeOe9VdLaESxxnFH-76" value="&lt;div style=&quot;background-color: rgb(255, 255, 254); font-size: 14px; line-height: 19px;&quot;&gt;&lt;br&gt;&lt;/div&gt;" style="text;html=1;align=center;verticalAlign=middle;resizable=0;points=[];autosize=1;strokeColor=none;fillColor=none;fontSize=12;fontFamily=Comic Sans MS;" parent="rDefNeOe9VdLaESxxnFH-82" vertex="1">
          <mxGeometry x="43.745070422535214" y="56" width="18" height="31" as="geometry" />
        </mxCell>
        <mxCell id="rDefNeOe9VdLaESxxnFH-79" value="V extends Primitive" style="rounded=0;whiteSpace=wrap;html=1;fontSize=12;fillColor=#fff2cc;strokeColor=#d6b656;fontFamily=Comic Sans MS;" parent="rDefNeOe9VdLaESxxnFH-82" vertex="1">
          <mxGeometry x="7.54225352112676" y="36" width="153.8619718309859" height="73" as="geometry" />
        </mxCell>
        <mxCell id="rDefNeOe9VdLaESxxnFH-80" value="`${K}`" style="rounded=0;whiteSpace=wrap;html=1;fontSize=12;fillColor=#d5e8d4;strokeColor=#82b366;fontFamily=Comic Sans MS;" parent="rDefNeOe9VdLaESxxnFH-82" vertex="1">
          <mxGeometry x="184.5338028169014" y="36" width="159.89577464788732" height="28" as="geometry" />
        </mxCell>
        <mxCell id="rDefNeOe9VdLaESxxnFH-78" style="edgeStyle=none;rounded=0;orthogonalLoop=1;jettySize=auto;html=1;exitX=1;exitY=0.5;exitDx=0;exitDy=0;entryX=0;entryY=0.5;entryDx=0;entryDy=0;fontSize=12;fontColor=#000000;endArrow=open;endFill=0;fillColor=#d5e8d4;strokeColor=#82b366;fontFamily=Comic Sans MS;" parent="rDefNeOe9VdLaESxxnFH-82" source="rDefNeOe9VdLaESxxnFH-79" target="rDefNeOe9VdLaESxxnFH-80" edge="1">
          <mxGeometry relative="1" as="geometry" />
        </mxCell>
        <mxCell id="rDefNeOe9VdLaESxxnFH-81" value="`${K}` | `${K}.${Path&amp;lt;V&amp;gt;}`" style="rounded=0;whiteSpace=wrap;html=1;fontSize=12;fillColor=#f8cecc;strokeColor=#b85450;fontFamily=Comic Sans MS;" parent="rDefNeOe9VdLaESxxnFH-82" vertex="1">
          <mxGeometry x="184.5338028169014" y="80" width="159.89577464788732" height="28" as="geometry" />
        </mxCell>
        <mxCell id="rDefNeOe9VdLaESxxnFH-77" style="edgeStyle=none;rounded=0;orthogonalLoop=1;jettySize=auto;html=1;exitX=1;exitY=0.5;exitDx=0;exitDy=0;entryX=0;entryY=0.5;entryDx=0;entryDy=0;fontSize=12;fontColor=#000000;endArrow=open;endFill=0;fillColor=#f8cecc;strokeColor=#b85450;fontFamily=Comic Sans MS;" parent="rDefNeOe9VdLaESxxnFH-82" source="rDefNeOe9VdLaESxxnFH-79" target="rDefNeOe9VdLaESxxnFH-81" edge="1">
          <mxGeometry relative="1" as="geometry" />
        </mxCell>
        <mxCell id="rDefNeOe9VdLaESxxnFH-98" value="PathImpl&amp;lt;K extends string | number, V&amp;gt;" style="text;html=1;align=center;verticalAlign=middle;resizable=0;points=[];autosize=1;strokeColor=none;fillColor=none;fontSize=16;fontColor=#000000;fontFamily=Comic Sans MS;" parent="rDefNeOe9VdLaESxxnFH-82" vertex="1">
          <mxGeometry x="-5" width="312" height="31" as="geometry" />
        </mxCell>
        <mxCell id="rDefNeOe9VdLaESxxnFH-83" value="" style="group;fontFamily=Comic Sans MS;" parent="1" vertex="1" connectable="0">
          <mxGeometry x="173" y="914" width="277" height="118" as="geometry" />
        </mxCell>
        <mxCell id="rDefNeOe9VdLaESxxnFH-59" value="" style="rounded=0;whiteSpace=wrap;html=1;fontFamily=Comic Sans MS;" parent="rDefNeOe9VdLaESxxnFH-83" vertex="1">
          <mxGeometry width="277" height="118" as="geometry" />
        </mxCell>
        <mxCell id="rDefNeOe9VdLaESxxnFH-60" value="&lt;div style=&quot;background-color: rgb(255, 255, 254); font-size: 14px; line-height: 19px;&quot;&gt;&lt;br&gt;&lt;/div&gt;" style="text;html=1;align=center;verticalAlign=middle;resizable=0;points=[];autosize=1;strokeColor=none;fillColor=none;fontSize=12;fontFamily=Comic Sans MS;" parent="rDefNeOe9VdLaESxxnFH-83" vertex="1">
          <mxGeometry x="44" y="57" width="18" height="31" as="geometry" />
        </mxCell>
        <mxCell id="rDefNeOe9VdLaESxxnFH-61" value="&lt;div style=&quot;background-color: rgb(255, 255, 254); font-size: 14px; line-height: 19px;&quot;&gt;TupleKey&lt;/div&gt;" style="text;html=1;align=center;verticalAlign=middle;resizable=0;points=[];autosize=1;strokeColor=none;fillColor=none;fontSize=12;fontFamily=Comic Sans MS;" parent="rDefNeOe9VdLaESxxnFH-83" vertex="1">
          <mxGeometry x="200" width="77" height="31" as="geometry" />
        </mxCell>
        <mxCell id="rDefNeOe9VdLaESxxnFH-64" value="Exclude&amp;lt;keyof T, keyof any[]&amp;gt;" style="rounded=0;whiteSpace=wrap;html=1;fontSize=12;fillColor=#ffe6cc;strokeColor=#d79b00;fontFamily=Comic Sans MS;" parent="rDefNeOe9VdLaESxxnFH-83" vertex="1">
          <mxGeometry x="8" y="37" width="258" height="73" as="geometry" />
        </mxCell>
        <mxCell id="rDefNeOe9VdLaESxxnFH-67" value="T extends ReadonlyArray&amp;lt;any&amp;gt;" style="whiteSpace=wrap;html=1;fontSize=12;fontColor=#000000;fontFamily=Comic Sans MS;" parent="rDefNeOe9VdLaESxxnFH-83" vertex="1">
          <mxGeometry width="184" height="24" as="geometry" />
        </mxCell>
        <mxCell id="rDefNeOe9VdLaESxxnFH-84" value="" style="group;fontFamily=Comic Sans MS;" parent="1" vertex="1" connectable="0">
          <mxGeometry x="173" y="611" width="278.5" height="118" as="geometry" />
        </mxCell>
        <mxCell id="rDefNeOe9VdLaESxxnFH-44" value="" style="rounded=0;whiteSpace=wrap;html=1;fontFamily=Comic Sans MS;" parent="rDefNeOe9VdLaESxxnFH-84" vertex="1">
          <mxGeometry width="277" height="118" as="geometry" />
        </mxCell>
        <mxCell id="rDefNeOe9VdLaESxxnFH-45" value="&lt;div style=&quot;background-color: rgb(255, 255, 254); font-size: 14px; line-height: 19px;&quot;&gt;&lt;br&gt;&lt;/div&gt;" style="text;html=1;align=center;verticalAlign=middle;resizable=0;points=[];autosize=1;strokeColor=none;fillColor=none;fontSize=12;fontFamily=Comic Sans MS;" parent="rDefNeOe9VdLaESxxnFH-84" vertex="1">
          <mxGeometry x="44" y="57" width="18" height="31" as="geometry" />
        </mxCell>
        <mxCell id="rDefNeOe9VdLaESxxnFH-46" value="IsTuple" style="text;html=1;align=center;verticalAlign=middle;resizable=0;points=[];autosize=1;strokeColor=none;fillColor=none;fontSize=12;fontFamily=Comic Sans MS;" parent="rDefNeOe9VdLaESxxnFH-84" vertex="1">
          <mxGeometry x="217.5" width="61" height="26" as="geometry" />
        </mxCell>
        <mxCell id="rDefNeOe9VdLaESxxnFH-51" value="number extends T[&#39;length&#39;]" style="rounded=0;whiteSpace=wrap;html=1;fontSize=12;fillColor=#fff2cc;strokeColor=#d6b656;fontFamily=Comic Sans MS;" parent="rDefNeOe9VdLaESxxnFH-84" vertex="1">
          <mxGeometry x="8" y="37" width="153" height="73" as="geometry" />
        </mxCell>
        <mxCell id="rDefNeOe9VdLaESxxnFH-52" value="false" style="rounded=0;whiteSpace=wrap;html=1;fontSize=12;fillColor=#d5e8d4;strokeColor=#82b366;fontFamily=Comic Sans MS;" parent="rDefNeOe9VdLaESxxnFH-84" vertex="1">
          <mxGeometry x="184" y="37" width="84" height="28" as="geometry" />
        </mxCell>
        <mxCell id="rDefNeOe9VdLaESxxnFH-50" style="edgeStyle=none;rounded=0;orthogonalLoop=1;jettySize=auto;html=1;exitX=1;exitY=0.5;exitDx=0;exitDy=0;entryX=0;entryY=0.5;entryDx=0;entryDy=0;fontSize=12;fontColor=#000000;endArrow=open;endFill=0;fillColor=#d5e8d4;strokeColor=#82b366;fontFamily=Comic Sans MS;" parent="rDefNeOe9VdLaESxxnFH-84" source="rDefNeOe9VdLaESxxnFH-51" target="rDefNeOe9VdLaESxxnFH-52" edge="1">
          <mxGeometry relative="1" as="geometry" />
        </mxCell>
        <mxCell id="rDefNeOe9VdLaESxxnFH-53" value="true" style="rounded=0;whiteSpace=wrap;html=1;fontSize=12;fillColor=#f8cecc;strokeColor=#b85450;fontFamily=Comic Sans MS;" parent="rDefNeOe9VdLaESxxnFH-84" vertex="1">
          <mxGeometry x="184" y="81" width="84" height="28" as="geometry" />
        </mxCell>
        <mxCell id="rDefNeOe9VdLaESxxnFH-49" style="edgeStyle=none;rounded=0;orthogonalLoop=1;jettySize=auto;html=1;exitX=1;exitY=0.5;exitDx=0;exitDy=0;entryX=0;entryY=0.5;entryDx=0;entryDy=0;fontSize=12;fontColor=#000000;endArrow=open;endFill=0;fillColor=#f8cecc;strokeColor=#b85450;fontFamily=Comic Sans MS;" parent="rDefNeOe9VdLaESxxnFH-84" source="rDefNeOe9VdLaESxxnFH-51" target="rDefNeOe9VdLaESxxnFH-53" edge="1">
          <mxGeometry relative="1" as="geometry" />
        </mxCell>
        <mxCell id="rDefNeOe9VdLaESxxnFH-55" value="T extends ReadonlyArray&amp;lt;any&amp;gt;" style="whiteSpace=wrap;html=1;fontSize=12;fontColor=#000000;fontFamily=Comic Sans MS;" parent="rDefNeOe9VdLaESxxnFH-84" vertex="1">
          <mxGeometry width="184" height="24" as="geometry" />
        </mxCell>
        <mxCell id="rDefNeOe9VdLaESxxnFH-103" style="edgeStyle=orthogonalEdgeStyle;curved=1;rounded=0;orthogonalLoop=1;jettySize=auto;html=1;exitX=1;exitY=0.5;exitDx=0;exitDy=0;entryX=0;entryY=0.5;entryDx=0;entryDy=0;fontSize=16;fontColor=#000000;endArrow=open;endFill=0;fontFamily=Comic Sans MS;" parent="1" source="rDefNeOe9VdLaESxxnFH-71" target="rDefNeOe9VdLaESxxnFH-94" edge="1">
          <mxGeometry relative="1" as="geometry" />
        </mxCell>
        <mxCell id="rDefNeOe9VdLaESxxnFH-106" style="edgeStyle=orthogonalEdgeStyle;curved=1;rounded=0;orthogonalLoop=1;jettySize=auto;html=1;exitX=1;exitY=0.5;exitDx=0;exitDy=0;entryX=0;entryY=0.5;entryDx=0;entryDy=0;fontSize=16;fontColor=#000000;endArrow=open;endFill=0;fontFamily=Comic Sans MS;" parent="1" source="rDefNeOe9VdLaESxxnFH-44" target="rDefNeOe9VdLaESxxnFH-102" edge="1">
          <mxGeometry relative="1" as="geometry" />
        </mxCell>
        <mxCell id="rDefNeOe9VdLaESxxnFH-110" style="edgeStyle=orthogonalEdgeStyle;curved=1;rounded=0;orthogonalLoop=1;jettySize=auto;html=1;exitX=0.5;exitY=1;exitDx=0;exitDy=0;entryX=0;entryY=0.5;entryDx=0;entryDy=0;fontSize=16;fontColor=#000000;endArrow=open;endFill=0;fontFamily=Comic Sans MS;" parent="1" source="rDefNeOe9VdLaESxxnFH-1" target="rDefNeOe9VdLaESxxnFH-71" edge="1">
          <mxGeometry relative="1" as="geometry" />
        </mxCell>
        <mxCell id="rDefNeOe9VdLaESxxnFH-112" value="" style="rounded=0;whiteSpace=wrap;html=1;fontFamily=Comic Sans MS;" parent="1" vertex="1">
          <mxGeometry x="-43" y="1058" width="461" height="280" as="geometry" />
        </mxCell>
        <mxCell id="rDefNeOe9VdLaESxxnFH-113" value="&lt;div style=&quot;background-color: rgb(255, 255, 254); font-size: 14px; line-height: 19px;&quot;&gt;&lt;br&gt;&lt;/div&gt;" style="text;html=1;align=center;verticalAlign=middle;resizable=0;points=[];autosize=1;strokeColor=none;fillColor=none;fontSize=12;fontFamily=Comic Sans MS;" parent="1" vertex="1">
          <mxGeometry x="1.247887323943658" y="1115" width="18" height="31" as="geometry" />
        </mxCell>
        <mxCell id="rDefNeOe9VdLaESxxnFH-114" value="&lt;div style=&quot;background-color: rgb(255, 255, 254); font-size: 14px; line-height: 19px;&quot;&gt;&lt;br&gt;&lt;/div&gt;" style="text;html=1;align=center;verticalAlign=middle;resizable=0;points=[];autosize=1;strokeColor=none;fillColor=none;fontSize=12;fontFamily=Comic Sans MS;" parent="1" vertex="1">
          <mxGeometry x="0.7450704225352069" y="1114" width="18" height="31" as="geometry" />
        </mxCell>
        <mxCell id="rDefNeOe9VdLaESxxnFH-130" style="edgeStyle=orthogonalEdgeStyle;curved=1;rounded=0;orthogonalLoop=1;jettySize=auto;html=1;exitX=0.5;exitY=1;exitDx=0;exitDy=0;entryX=0.5;entryY=0;entryDx=0;entryDy=0;fontSize=12;fontColor=#000000;endArrow=open;endFill=0;fillColor=#f8cecc;strokeColor=#b85450;fontFamily=Comic Sans MS;" parent="1" source="rDefNeOe9VdLaESxxnFH-115" target="rDefNeOe9VdLaESxxnFH-122" edge="1">
          <mxGeometry relative="1" as="geometry" />
        </mxCell>
        <mxCell id="rDefNeOe9VdLaESxxnFH-115" value="V extends Primitive" style="rounded=0;whiteSpace=wrap;html=1;fontSize=12;fillColor=#fff2cc;strokeColor=#d6b656;fontFamily=Comic Sans MS;" parent="1" vertex="1">
          <mxGeometry x="-33" y="1094" width="216" height="48" as="geometry" />
        </mxCell>
        <mxCell id="rDefNeOe9VdLaESxxnFH-116" value="never" style="rounded=0;whiteSpace=wrap;html=1;fontSize=12;fillColor=#d5e8d4;strokeColor=#82b366;fontFamily=Comic Sans MS;" parent="1" vertex="1">
          <mxGeometry x="214" y="1096" width="79.47" height="28" as="geometry" />
        </mxCell>
        <mxCell id="rDefNeOe9VdLaESxxnFH-117" style="edgeStyle=none;rounded=0;orthogonalLoop=1;jettySize=auto;html=1;exitX=1;exitY=0.5;exitDx=0;exitDy=0;entryX=0;entryY=0.5;entryDx=0;entryDy=0;fontSize=12;fontColor=#000000;endArrow=open;endFill=0;fillColor=#d5e8d4;strokeColor=#82b366;fontFamily=Comic Sans MS;" parent="1" source="rDefNeOe9VdLaESxxnFH-115" target="rDefNeOe9VdLaESxxnFH-116" edge="1">
          <mxGeometry relative="1" as="geometry" />
        </mxCell>
        <mxCell id="rDefNeOe9VdLaESxxnFH-120" value="ArrayPathImpl&amp;lt;K extends string | number, V&amp;gt;" style="text;html=1;align=center;verticalAlign=middle;resizable=0;points=[];autosize=1;strokeColor=none;fillColor=none;fontSize=16;fontColor=#000000;fontFamily=Comic Sans MS;" parent="1" vertex="1">
          <mxGeometry x="-51" y="1058" width="356" height="31" as="geometry" />
        </mxCell>
        <mxCell id="rDefNeOe9VdLaESxxnFH-126" style="edgeStyle=orthogonalEdgeStyle;curved=1;rounded=0;orthogonalLoop=1;jettySize=auto;html=1;exitX=0.5;exitY=1;exitDx=0;exitDy=0;entryX=0.5;entryY=0;entryDx=0;entryDy=0;fontSize=12;fontColor=#000000;endArrow=open;endFill=0;fillColor=#d5e8d4;strokeColor=#82b366;fontFamily=Comic Sans MS;" parent="1" source="rDefNeOe9VdLaESxxnFH-122" target="rDefNeOe9VdLaESxxnFH-123" edge="1">
          <mxGeometry relative="1" as="geometry" />
        </mxCell>
        <mxCell id="rDefNeOe9VdLaESxxnFH-129" style="edgeStyle=orthogonalEdgeStyle;curved=1;rounded=0;orthogonalLoop=1;jettySize=auto;html=1;exitX=1;exitY=0.5;exitDx=0;exitDy=0;entryX=0;entryY=0.5;entryDx=0;entryDy=0;fontSize=12;fontColor=#000000;endArrow=open;endFill=0;fillColor=#f8cecc;strokeColor=#b85450;fontFamily=Comic Sans MS;" parent="1" source="rDefNeOe9VdLaESxxnFH-122" target="rDefNeOe9VdLaESxxnFH-128" edge="1">
          <mxGeometry relative="1" as="geometry" />
        </mxCell>
        <mxCell id="rDefNeOe9VdLaESxxnFH-122" value="V extends ReadonlyArray&amp;lt;infer U&amp;gt;" style="whiteSpace=wrap;html=1;fontSize=12;fillColor=#fff2cc;strokeColor=#d6b656;fontFamily=Comic Sans MS;" parent="1" vertex="1">
          <mxGeometry x="-33" y="1187" width="216" height="47" as="geometry" />
        </mxCell>
        <mxCell id="rDefNeOe9VdLaESxxnFH-132" style="edgeStyle=orthogonalEdgeStyle;curved=1;rounded=0;orthogonalLoop=1;jettySize=auto;html=1;exitX=0.5;exitY=1;exitDx=0;exitDy=0;entryX=1;entryY=0.5;entryDx=0;entryDy=0;fontSize=12;fontColor=#000000;endArrow=open;endFill=0;fillColor=#d5e8d4;strokeColor=#82b366;fontFamily=Comic Sans MS;" parent="1" source="rDefNeOe9VdLaESxxnFH-123" target="rDefNeOe9VdLaESxxnFH-116" edge="1">
          <mxGeometry relative="1" as="geometry">
            <Array as="points">
              <mxPoint x="75" y="1385" />
              <mxPoint x="462" y="1385" />
              <mxPoint x="462" y="1110" />
            </Array>
          </mxGeometry>
        </mxCell>
        <mxCell id="rDefNeOe9VdLaESxxnFH-133" style="edgeStyle=orthogonalEdgeStyle;curved=1;rounded=0;orthogonalLoop=1;jettySize=auto;html=1;exitX=1;exitY=0.5;exitDx=0;exitDy=0;entryX=0;entryY=0.5;entryDx=0;entryDy=0;fontSize=12;fontColor=#000000;endArrow=open;endFill=0;fontFamily=Comic Sans MS;" parent="1" source="rDefNeOe9VdLaESxxnFH-123" target="rDefNeOe9VdLaESxxnFH-131" edge="1">
          <mxGeometry relative="1" as="geometry" />
        </mxCell>
        <mxCell id="rDefNeOe9VdLaESxxnFH-123" value="U extends Primitive" style="whiteSpace=wrap;html=1;fontSize=12;fillColor=#fff2cc;strokeColor=#d6b656;fontFamily=Comic Sans MS;" parent="1" vertex="1">
          <mxGeometry x="-34" y="1284" width="217" height="44" as="geometry" />
        </mxCell>
        <mxCell id="rDefNeOe9VdLaESxxnFH-128" value="`${K}` | `${K}.${ArrayPath&amp;lt;V&amp;gt;}`" style="whiteSpace=wrap;html=1;fontSize=12;fillColor=#f8cecc;strokeColor=#b85450;fontFamily=Comic Sans MS;" parent="1" vertex="1">
          <mxGeometry x="208" y="1189.5" width="197" height="42" as="geometry" />
        </mxCell>
        <mxCell id="rDefNeOe9VdLaESxxnFH-131" value="`${K}.${ArrayPath&amp;lt;V&amp;gt;}`" style="whiteSpace=wrap;html=1;fontSize=12;fillColor=#f8cecc;strokeColor=#b85450;fontStyle=0;fontFamily=Comic Sans MS;" parent="1" vertex="1">
          <mxGeometry x="208" y="1284" width="197" height="42" as="geometry" />
        </mxCell>
        <mxCell id="rDefNeOe9VdLaESxxnFH-229" style="edgeStyle=orthogonalEdgeStyle;curved=1;rounded=0;orthogonalLoop=1;jettySize=auto;html=1;entryX=0.48;entryY=0.003;entryDx=0;entryDy=0;entryPerimeter=0;fontSize=12;fontColor=#000000;endArrow=open;endFill=0;fontFamily=Comic Sans MS;" parent="1" source="rDefNeOe9VdLaESxxnFH-148" target="rDefNeOe9VdLaESxxnFH-149" edge="1">
          <mxGeometry relative="1" as="geometry" />
        </mxCell>
        <mxCell id="rDefNeOe9VdLaESxxnFH-148" value="FieldPath&amp;lt;TFieldValues extends FieldValues&amp;gt; &lt;br&gt;Path&amp;lt;TFieldValues&amp;gt;" style="text;html=1;align=center;verticalAlign=middle;resizable=0;points=[];autosize=1;strokeColor=#6c8ebf;fillColor=#dae8fc;fontSize=12;fontFamily=Comic Sans MS;" parent="1" vertex="1">
          <mxGeometry x="1344.5" y="1110" width="267" height="41" as="geometry" />
        </mxCell>
        <mxCell id="rDefNeOe9VdLaESxxnFH-149" value="&lt;div style=&quot;border-color: var(--border-color); font-size: 14px; line-height: 19px;&quot;&gt;FieldPathValue&amp;lt;TFieldValues extends FieldValues,TFieldPath extends FieldPath&amp;lt;TFieldValues&amp;gt;,&amp;gt;&lt;/div&gt;&lt;div style=&quot;border-color: var(--border-color); font-size: 14px; line-height: 19px;&quot;&gt;Path&amp;lt;TFieldValues&amp;gt;&lt;/div&gt;" style="text;html=1;align=center;verticalAlign=middle;resizable=0;points=[];autosize=1;strokeColor=#6c8ebf;fillColor=#dae8fc;fontSize=12;fontFamily=Comic Sans MS;" parent="1" vertex="1">
          <mxGeometry x="1171" y="1231.5" width="638" height="50" as="geometry" />
        </mxCell>
        <mxCell id="rDefNeOe9VdLaESxxnFH-228" style="edgeStyle=orthogonalEdgeStyle;curved=1;rounded=0;orthogonalLoop=1;jettySize=auto;html=1;fontSize=12;fontColor=#000000;endArrow=open;endFill=0;fontFamily=Comic Sans MS;" parent="1" source="rDefNeOe9VdLaESxxnFH-151" target="rDefNeOe9VdLaESxxnFH-148" edge="1">
          <mxGeometry relative="1" as="geometry" />
        </mxCell>
        <mxCell id="rDefNeOe9VdLaESxxnFH-151" value="&lt;font style=&quot;border-color: var(--border-color); font-size: 16px;&quot;&gt;FieldValues&lt;/font&gt;&lt;br style=&quot;border-color: var(--border-color);&quot;&gt;&lt;font style=&quot;border-color: var(--border-color);&quot;&gt;Record&amp;lt;string, any&amp;gt;&lt;/font&gt;" style="text;html=1;align=center;verticalAlign=middle;resizable=0;points=[];autosize=1;strokeColor=#6c8ebf;fillColor=#dae8fc;fontSize=12;fontFamily=Comic Sans MS;" parent="1" vertex="1">
          <mxGeometry x="1198" y="1006" width="125" height="46" as="geometry" />
        </mxCell>
        <mxCell id="rDefNeOe9VdLaESxxnFH-154" value="" style="group;fontFamily=Comic Sans MS;" parent="1" vertex="1" connectable="0">
          <mxGeometry x="497" y="622" width="600" height="310" as="geometry" />
        </mxCell>
        <mxCell id="rDefNeOe9VdLaESxxnFH-88" value="" style="rounded=0;whiteSpace=wrap;html=1;container=0;fontFamily=Comic Sans MS;" parent="rDefNeOe9VdLaESxxnFH-154" vertex="1">
          <mxGeometry width="600" height="310" as="geometry" />
        </mxCell>
        <mxCell id="rDefNeOe9VdLaESxxnFH-89" value="&lt;div style=&quot;background-color: rgb(255, 255, 254); font-size: 14px; line-height: 19px;&quot;&gt;&lt;br&gt;&lt;/div&gt;" style="text;html=1;align=center;verticalAlign=middle;resizable=0;points=[];autosize=1;strokeColor=none;fillColor=none;fontSize=12;container=0;fontFamily=Comic Sans MS;" parent="rDefNeOe9VdLaESxxnFH-154" vertex="1">
          <mxGeometry x="44" y="57" width="18" height="31" as="geometry" />
        </mxCell>
        <mxCell id="rDefNeOe9VdLaESxxnFH-92" value="&lt;div style=&quot;background-color: rgb(255, 255, 254); font-size: 14px; line-height: 19px;&quot;&gt;&lt;br&gt;&lt;/div&gt;" style="text;html=1;align=center;verticalAlign=middle;resizable=0;points=[];autosize=1;strokeColor=none;fillColor=none;fontSize=12;container=0;fontFamily=Comic Sans MS;" parent="rDefNeOe9VdLaESxxnFH-154" vertex="1">
          <mxGeometry x="43.5" y="56" width="18" height="31" as="geometry" />
        </mxCell>
        <mxCell id="rDefNeOe9VdLaESxxnFH-93" value="T extends ReadonlyArray&amp;lt;infer V&amp;gt;" style="rounded=0;whiteSpace=wrap;html=1;fontSize=12;fillColor=#fff2cc;strokeColor=#d6b656;container=0;fontFamily=Comic Sans MS;" parent="rDefNeOe9VdLaESxxnFH-154" vertex="1">
          <mxGeometry x="16.5" y="62" width="225" height="36" as="geometry" />
        </mxCell>
        <mxCell id="rDefNeOe9VdLaESxxnFH-94" value="{[K in TupleKey&amp;lt;T&amp;gt;]-?: PathImpl&amp;lt;K &amp;amp; string, T[K]&amp;gt;;}[TupleKey&amp;lt;T&amp;gt;]" style="rounded=0;whiteSpace=wrap;html=1;fontSize=12;fillColor=#d5e8d4;strokeColor=#82b366;container=0;align=center;horizontal=1;fontFamily=Comic Sans MS;" parent="rDefNeOe9VdLaESxxnFH-154" vertex="1">
          <mxGeometry x="15.5" y="209" width="562.5" height="80" as="geometry" />
        </mxCell>
        <mxCell id="rDefNeOe9VdLaESxxnFH-95" style="edgeStyle=none;rounded=0;orthogonalLoop=1;jettySize=auto;html=1;exitX=0.5;exitY=1;exitDx=0;exitDy=0;fontSize=12;fontColor=#000000;endArrow=open;endFill=0;fillColor=#d5e8d4;strokeColor=#82b366;entryX=0.5;entryY=0;entryDx=0;entryDy=0;fontFamily=Comic Sans MS;" parent="rDefNeOe9VdLaESxxnFH-154" source="rDefNeOe9VdLaESxxnFH-93" target="rDefNeOe9VdLaESxxnFH-102" edge="1">
          <mxGeometry relative="1" as="geometry">
            <mxPoint x="143.5" y="111" as="targetPoint" />
          </mxGeometry>
        </mxCell>
        <mxCell id="rDefNeOe9VdLaESxxnFH-96" value="PathImpl&amp;lt;ArrayKey, V&amp;gt;" style="rounded=0;whiteSpace=wrap;html=1;fontSize=12;fillColor=#f8cecc;strokeColor=#b85450;container=0;fontFamily=Comic Sans MS;" parent="rDefNeOe9VdLaESxxnFH-154" vertex="1">
          <mxGeometry x="277" y="62" width="299" height="36" as="geometry" />
        </mxCell>
        <mxCell id="rDefNeOe9VdLaESxxnFH-97" style="edgeStyle=orthogonalEdgeStyle;rounded=0;orthogonalLoop=1;jettySize=auto;html=1;exitX=1;exitY=0.5;exitDx=0;exitDy=0;entryX=0;entryY=0.5;entryDx=0;entryDy=0;fontSize=12;fontColor=#000000;endArrow=open;endFill=0;fillColor=#f8cecc;strokeColor=#b85450;curved=1;fontFamily=Comic Sans MS;" parent="rDefNeOe9VdLaESxxnFH-154" source="rDefNeOe9VdLaESxxnFH-93" target="rDefNeOe9VdLaESxxnFH-96" edge="1">
          <mxGeometry relative="1" as="geometry" />
        </mxCell>
        <mxCell id="rDefNeOe9VdLaESxxnFH-100" value="Path&amp;lt;T&amp;gt;" style="text;html=1;align=center;verticalAlign=middle;resizable=0;points=[];autosize=1;strokeColor=none;fillColor=none;fontSize=16;fontColor=#000000;fontFamily=Comic Sans MS;" parent="rDefNeOe9VdLaESxxnFH-154" vertex="1">
          <mxGeometry x="3" width="74" height="31" as="geometry" />
        </mxCell>
        <mxCell id="rDefNeOe9VdLaESxxnFH-108" style="edgeStyle=orthogonalEdgeStyle;curved=1;rounded=0;orthogonalLoop=1;jettySize=auto;html=1;exitX=0.5;exitY=1;exitDx=0;exitDy=0;fontSize=16;fontColor=#000000;endArrow=open;endFill=0;fillColor=#d5e8d4;strokeColor=#82b366;entryX=0.25;entryY=0;entryDx=0;entryDy=0;fontFamily=Comic Sans MS;" parent="rDefNeOe9VdLaESxxnFH-154" source="rDefNeOe9VdLaESxxnFH-102" target="rDefNeOe9VdLaESxxnFH-94" edge="1">
          <mxGeometry relative="1" as="geometry" />
        </mxCell>
        <mxCell id="rDefNeOe9VdLaESxxnFH-102" value="IsTuple&amp;lt;T&amp;gt; extends true" style="rounded=0;whiteSpace=wrap;html=1;fontSize=12;fillColor=#fff2cc;strokeColor=#d6b656;container=0;fontFamily=Comic Sans MS;" parent="rDefNeOe9VdLaESxxnFH-154" vertex="1">
          <mxGeometry x="15.5" y="138" width="226" height="34" as="geometry" />
        </mxCell>
        <mxCell id="rDefNeOe9VdLaESxxnFH-107" value="{[K in keyof T]-?: PathImpl&amp;lt;K &amp;amp; string, T[K]&amp;gt;;}&lt;br&gt;[keyof T]" style="rounded=0;whiteSpace=wrap;html=1;fontSize=12;fillColor=#f8cecc;strokeColor=#b85450;container=0;fontFamily=Comic Sans MS;" parent="rDefNeOe9VdLaESxxnFH-154" vertex="1">
          <mxGeometry x="277" y="111.5" width="302" height="87" as="geometry" />
        </mxCell>
        <mxCell id="rDefNeOe9VdLaESxxnFH-109" style="edgeStyle=orthogonalEdgeStyle;curved=1;rounded=0;orthogonalLoop=1;jettySize=auto;html=1;exitX=1;exitY=0.5;exitDx=0;exitDy=0;entryX=0;entryY=0.5;entryDx=0;entryDy=0;fontSize=16;fontColor=#000000;endArrow=open;endFill=0;fillColor=#f8cecc;strokeColor=#b85450;fontFamily=Comic Sans MS;" parent="rDefNeOe9VdLaESxxnFH-154" source="rDefNeOe9VdLaESxxnFH-102" target="rDefNeOe9VdLaESxxnFH-107" edge="1">
          <mxGeometry relative="1" as="geometry" />
        </mxCell>
        <mxCell id="rDefNeOe9VdLaESxxnFH-219" value="" style="group;fontFamily=Comic Sans MS;" parent="1" vertex="1" connectable="0">
          <mxGeometry x="1169" y="625" width="593" height="341" as="geometry" />
        </mxCell>
        <mxCell id="rDefNeOe9VdLaESxxnFH-172" value="" style="rounded=0;whiteSpace=wrap;html=1;container=0;fontFamily=Comic Sans MS;" parent="rDefNeOe9VdLaESxxnFH-219" vertex="1">
          <mxGeometry x="24" width="569" height="310" as="geometry" />
        </mxCell>
        <mxCell id="rDefNeOe9VdLaESxxnFH-173" value="&lt;div style=&quot;background-color: rgb(255, 255, 254); font-size: 14px; line-height: 19px;&quot;&gt;&lt;br&gt;&lt;/div&gt;" style="text;html=1;align=center;verticalAlign=middle;resizable=0;points=[];autosize=1;strokeColor=none;fillColor=none;fontSize=12;container=0;fontFamily=Comic Sans MS;" parent="rDefNeOe9VdLaESxxnFH-219" vertex="1">
          <mxGeometry x="68" y="57" width="18" height="31" as="geometry" />
        </mxCell>
        <mxCell id="rDefNeOe9VdLaESxxnFH-174" value="&lt;div style=&quot;background-color: rgb(255, 255, 254); font-size: 14px; line-height: 19px;&quot;&gt;&lt;br&gt;&lt;/div&gt;" style="text;html=1;align=center;verticalAlign=middle;resizable=0;points=[];autosize=1;strokeColor=none;fillColor=none;fontSize=12;container=0;fontFamily=Comic Sans MS;" parent="rDefNeOe9VdLaESxxnFH-219" vertex="1">
          <mxGeometry x="67.5" y="56" width="18" height="31" as="geometry" />
        </mxCell>
        <mxCell id="rDefNeOe9VdLaESxxnFH-176" value="T extends any" style="rounded=0;whiteSpace=wrap;html=1;fontSize=12;fillColor=#fff2cc;strokeColor=#d6b656;container=0;fontFamily=Comic Sans MS;" parent="rDefNeOe9VdLaESxxnFH-219" vertex="1">
          <mxGeometry x="40.5" y="62" width="225" height="36" as="geometry" />
        </mxCell>
        <mxCell id="rDefNeOe9VdLaESxxnFH-178" style="edgeStyle=none;rounded=0;orthogonalLoop=1;jettySize=auto;html=1;exitX=0.5;exitY=1;exitDx=0;exitDy=0;fontSize=12;fontColor=#000000;endArrow=open;endFill=0;fillColor=#d5e8d4;strokeColor=#82b366;entryX=0.5;entryY=0;entryDx=0;entryDy=0;fontFamily=Comic Sans MS;" parent="rDefNeOe9VdLaESxxnFH-219" source="rDefNeOe9VdLaESxxnFH-176" target="rDefNeOe9VdLaESxxnFH-182" edge="1">
          <mxGeometry relative="1" as="geometry">
            <mxPoint x="167.5" y="111" as="targetPoint" />
          </mxGeometry>
        </mxCell>
        <mxCell id="rDefNeOe9VdLaESxxnFH-180" value="PathValue&amp;lt;T, P extends Path&amp;lt;T&amp;gt; | ArrayPath&amp;lt;T&amp;gt;&amp;gt;" style="text;html=1;align=center;verticalAlign=middle;resizable=0;points=[];autosize=1;strokeColor=none;fillColor=none;fontSize=16;fontColor=#000000;fontFamily=Comic Sans MS;" parent="rDefNeOe9VdLaESxxnFH-219" vertex="1">
          <mxGeometry x="25" width="374" height="31" as="geometry" />
        </mxCell>
        <mxCell id="rDefNeOe9VdLaESxxnFH-182" value="P extends `${infer K}.${infer R}`" style="rounded=0;whiteSpace=wrap;html=1;fontSize=12;fillColor=#fff2cc;strokeColor=#d6b656;container=0;fontFamily=Comic Sans MS;" parent="rDefNeOe9VdLaESxxnFH-219" vertex="1">
          <mxGeometry x="39.5" y="113" width="226" height="34" as="geometry" />
        </mxCell>
        <mxCell id="H39mZg0UehCR3N81K4pK-2" style="edgeStyle=orthogonalEdgeStyle;rounded=0;orthogonalLoop=1;jettySize=auto;html=1;exitX=1;exitY=0.5;exitDx=0;exitDy=0;entryX=0;entryY=0.5;entryDx=0;entryDy=0;fillColor=#f8cecc;strokeColor=#b85450;endArrow=open;endFill=0;" edge="1" parent="rDefNeOe9VdLaESxxnFH-219" source="rDefNeOe9VdLaESxxnFH-186" target="rDefNeOe9VdLaESxxnFH-190">
          <mxGeometry relative="1" as="geometry" />
        </mxCell>
        <mxCell id="rDefNeOe9VdLaESxxnFH-186" value="K extends keyof T" style="rounded=0;whiteSpace=wrap;html=1;fontSize=12;fillColor=#fff2cc;strokeColor=#d6b656;container=0;fontFamily=Comic Sans MS;" parent="rDefNeOe9VdLaESxxnFH-219" vertex="1">
          <mxGeometry x="40.5" y="161" width="226" height="34" as="geometry" />
        </mxCell>
        <mxCell id="rDefNeOe9VdLaESxxnFH-207" style="edgeStyle=orthogonalEdgeStyle;curved=1;rounded=0;orthogonalLoop=1;jettySize=auto;html=1;exitX=0.5;exitY=1;exitDx=0;exitDy=0;entryX=0.5;entryY=0;entryDx=0;entryDy=0;fontSize=12;fontColor=#000000;endArrow=open;endFill=0;fillColor=#d5e8d4;strokeColor=#82b366;fontFamily=Comic Sans MS;" parent="rDefNeOe9VdLaESxxnFH-219" source="rDefNeOe9VdLaESxxnFH-182" target="rDefNeOe9VdLaESxxnFH-186" edge="1">
          <mxGeometry relative="1" as="geometry" />
        </mxCell>
        <mxCell id="rDefNeOe9VdLaESxxnFH-187" value="R extends Path&amp;lt;T[K]&amp;gt;" style="rounded=0;whiteSpace=wrap;html=1;fontSize=12;fillColor=#fff2cc;strokeColor=#d6b656;container=0;fontFamily=Comic Sans MS;" parent="rDefNeOe9VdLaESxxnFH-219" vertex="1">
          <mxGeometry x="39.5" y="214" width="226" height="34" as="geometry" />
        </mxCell>
        <mxCell id="rDefNeOe9VdLaESxxnFH-208" style="edgeStyle=orthogonalEdgeStyle;curved=1;rounded=0;orthogonalLoop=1;jettySize=auto;html=1;exitX=0.5;exitY=1;exitDx=0;exitDy=0;entryX=0.5;entryY=0;entryDx=0;entryDy=0;fontSize=12;fontColor=#000000;endArrow=open;endFill=0;fillColor=#d5e8d4;strokeColor=#82b366;fontFamily=Comic Sans MS;" parent="rDefNeOe9VdLaESxxnFH-219" source="rDefNeOe9VdLaESxxnFH-186" target="rDefNeOe9VdLaESxxnFH-187" edge="1">
          <mxGeometry relative="1" as="geometry" />
        </mxCell>
        <mxCell id="rDefNeOe9VdLaESxxnFH-188" value="PathValue&amp;lt;T[K], R&amp;gt;" style="rounded=0;whiteSpace=wrap;html=1;fontSize=12;fillColor=#d5e8d4;strokeColor=#82b366;fontFamily=Comic Sans MS;" parent="rDefNeOe9VdLaESxxnFH-219" vertex="1">
          <mxGeometry x="39.5" y="270" width="127.5" height="28" as="geometry" />
        </mxCell>
        <mxCell id="rDefNeOe9VdLaESxxnFH-209" style="edgeStyle=orthogonalEdgeStyle;curved=1;rounded=0;orthogonalLoop=1;jettySize=auto;html=1;exitX=0.5;exitY=1;exitDx=0;exitDy=0;entryX=0.5;entryY=0;entryDx=0;entryDy=0;fontSize=12;fontColor=#000000;endArrow=open;endFill=0;fillColor=#d5e8d4;strokeColor=#82b366;fontFamily=Comic Sans MS;" parent="rDefNeOe9VdLaESxxnFH-219" source="rDefNeOe9VdLaESxxnFH-187" target="rDefNeOe9VdLaESxxnFH-188" edge="1">
          <mxGeometry relative="1" as="geometry">
            <Array as="points">
              <mxPoint x="152" y="255" />
              <mxPoint x="103" y="255" />
            </Array>
          </mxGeometry>
        </mxCell>
        <mxCell id="rDefNeOe9VdLaESxxnFH-189" value="never" style="rounded=0;whiteSpace=wrap;html=1;fontSize=12;fillColor=#f8cecc;strokeColor=#b85450;container=0;fontFamily=Comic Sans MS;" parent="rDefNeOe9VdLaESxxnFH-219" vertex="1">
          <mxGeometry x="180" y="270" width="85" height="28" as="geometry" />
        </mxCell>
        <mxCell id="rDefNeOe9VdLaESxxnFH-198" style="edgeStyle=orthogonalEdgeStyle;curved=1;rounded=0;orthogonalLoop=1;jettySize=auto;html=1;exitX=0;exitY=0.5;exitDx=0;exitDy=0;entryX=0.5;entryY=1;entryDx=0;entryDy=0;fontSize=12;fontColor=#000000;endArrow=open;endFill=0;fillColor=#f8cecc;strokeColor=#b85450;fontFamily=Comic Sans MS;" parent="rDefNeOe9VdLaESxxnFH-219" source="rDefNeOe9VdLaESxxnFH-176" target="rDefNeOe9VdLaESxxnFH-189" edge="1">
          <mxGeometry relative="1" as="geometry">
            <Array as="points">
              <mxPoint y="80" />
              <mxPoint y="341" />
              <mxPoint x="223" y="341" />
            </Array>
          </mxGeometry>
        </mxCell>
        <mxCell id="rDefNeOe9VdLaESxxnFH-210" style="edgeStyle=orthogonalEdgeStyle;curved=1;rounded=0;orthogonalLoop=1;jettySize=auto;html=1;exitX=0.5;exitY=1;exitDx=0;exitDy=0;fontSize=12;fontColor=#000000;endArrow=open;endFill=0;fillColor=#f8cecc;strokeColor=#b85450;fontFamily=Comic Sans MS;" parent="rDefNeOe9VdLaESxxnFH-219" source="rDefNeOe9VdLaESxxnFH-187" target="rDefNeOe9VdLaESxxnFH-189" edge="1">
          <mxGeometry relative="1" as="geometry">
            <Array as="points">
              <mxPoint x="152" y="255" />
              <mxPoint x="222" y="255" />
            </Array>
          </mxGeometry>
        </mxCell>
        <mxCell id="rDefNeOe9VdLaESxxnFH-190" value="K extends `${ArrayKey}`" style="rounded=0;whiteSpace=wrap;html=1;fontSize=12;fillColor=#fff2cc;strokeColor=#d6b656;container=0;fontFamily=Comic Sans MS;" parent="rDefNeOe9VdLaESxxnFH-219" vertex="1">
          <mxGeometry x="305.5" y="161" width="207" height="34" as="geometry" />
        </mxCell>
        <mxCell id="H39mZg0UehCR3N81K4pK-9" style="edgeStyle=orthogonalEdgeStyle;rounded=0;orthogonalLoop=1;jettySize=auto;html=1;exitX=0.5;exitY=1;exitDx=0;exitDy=0;entryX=0.5;entryY=0;entryDx=0;entryDy=0;fillColor=#d5e8d4;strokeColor=#82b366;endArrow=open;endFill=0;" edge="1" parent="rDefNeOe9VdLaESxxnFH-219" source="rDefNeOe9VdLaESxxnFH-193" target="rDefNeOe9VdLaESxxnFH-214">
          <mxGeometry relative="1" as="geometry" />
        </mxCell>
        <mxCell id="rDefNeOe9VdLaESxxnFH-193" value="P extends `${ArrayKey}`" style="rounded=0;whiteSpace=wrap;html=1;fontSize=12;fillColor=#fff2cc;strokeColor=#d6b656;container=0;fontFamily=Comic Sans MS;" parent="rDefNeOe9VdLaESxxnFH-219" vertex="1">
          <mxGeometry x="306" y="66" width="206.5" height="34" as="geometry" />
        </mxCell>
        <mxCell id="rDefNeOe9VdLaESxxnFH-212" style="edgeStyle=orthogonalEdgeStyle;curved=1;rounded=0;orthogonalLoop=1;jettySize=auto;html=1;exitX=1;exitY=0.5;exitDx=0;exitDy=0;entryX=0;entryY=0.5;entryDx=0;entryDy=0;fontSize=12;fontColor=#000000;endArrow=open;endFill=0;fillColor=#f8cecc;strokeColor=#b85450;fontFamily=Comic Sans MS;" parent="rDefNeOe9VdLaESxxnFH-219" source="rDefNeOe9VdLaESxxnFH-182" target="H39mZg0UehCR3N81K4pK-1" edge="1">
          <mxGeometry relative="1" as="geometry">
            <Array as="points">
              <mxPoint x="287" y="130" />
              <mxPoint x="287" y="30" />
            </Array>
          </mxGeometry>
        </mxCell>
        <mxCell id="rDefNeOe9VdLaESxxnFH-195" value="T[P]" style="rounded=0;whiteSpace=wrap;html=1;fontSize=12;fillColor=#d5e8d4;strokeColor=#82b366;fontFamily=Comic Sans MS;" parent="rDefNeOe9VdLaESxxnFH-219" vertex="1">
          <mxGeometry x="530" y="67" width="53" height="33" as="geometry" />
        </mxCell>
        <mxCell id="rDefNeOe9VdLaESxxnFH-204" style="edgeStyle=orthogonalEdgeStyle;curved=1;rounded=0;orthogonalLoop=1;jettySize=auto;html=1;exitX=0;exitY=0.5;exitDx=0;exitDy=0;entryX=1;entryY=0.5;entryDx=0;entryDy=0;fontSize=12;fontColor=#000000;endArrow=open;endFill=0;fillColor=#f8cecc;strokeColor=#b85450;fontFamily=Comic Sans MS;" parent="rDefNeOe9VdLaESxxnFH-219" source="rDefNeOe9VdLaESxxnFH-196" target="rDefNeOe9VdLaESxxnFH-189" edge="1">
          <mxGeometry relative="1" as="geometry" />
        </mxCell>
        <mxCell id="rDefNeOe9VdLaESxxnFH-196" value="T extends ReadonlyArray&amp;lt;infer V&amp;gt;" style="rounded=0;whiteSpace=wrap;html=1;fontSize=12;fillColor=#fff2cc;strokeColor=#d6b656;container=0;fontFamily=Comic Sans MS;" parent="rDefNeOe9VdLaESxxnFH-219" vertex="1">
          <mxGeometry x="305.5" y="212" width="206.5" height="34" as="geometry" />
        </mxCell>
        <mxCell id="rDefNeOe9VdLaESxxnFH-202" style="edgeStyle=orthogonalEdgeStyle;curved=1;rounded=0;orthogonalLoop=1;jettySize=auto;html=1;exitX=0.5;exitY=1;exitDx=0;exitDy=0;entryX=0.5;entryY=0;entryDx=0;entryDy=0;fontSize=12;fontColor=#000000;endArrow=open;endFill=0;fillColor=#d5e8d4;strokeColor=#82b366;fontFamily=Comic Sans MS;" parent="rDefNeOe9VdLaESxxnFH-219" source="rDefNeOe9VdLaESxxnFH-190" target="rDefNeOe9VdLaESxxnFH-196" edge="1">
          <mxGeometry relative="1" as="geometry" />
        </mxCell>
        <mxCell id="rDefNeOe9VdLaESxxnFH-197" value="V" style="rounded=0;whiteSpace=wrap;html=1;fontSize=12;fillColor=#d5e8d4;strokeColor=#82b366;fontFamily=Comic Sans MS;" parent="rDefNeOe9VdLaESxxnFH-219" vertex="1">
          <mxGeometry x="529" y="113" width="54" height="33" as="geometry" />
        </mxCell>
        <mxCell id="rDefNeOe9VdLaESxxnFH-201" value="PathValue&amp;lt;V, R &amp;amp; Path&amp;lt;V&amp;gt;&amp;gt;" style="rounded=0;whiteSpace=wrap;html=1;fontSize=12;fillColor=#d5e8d4;strokeColor=#82b366;fontFamily=Comic Sans MS;" parent="rDefNeOe9VdLaESxxnFH-219" vertex="1">
          <mxGeometry x="305.5" y="270" width="205.5" height="28" as="geometry" />
        </mxCell>
        <mxCell id="rDefNeOe9VdLaESxxnFH-203" style="edgeStyle=orthogonalEdgeStyle;curved=1;rounded=0;orthogonalLoop=1;jettySize=auto;html=1;exitX=0.5;exitY=1;exitDx=0;exitDy=0;entryX=0.5;entryY=0;entryDx=0;entryDy=0;fontSize=12;fontColor=#000000;endArrow=open;endFill=0;fillColor=#d5e8d4;strokeColor=#82b366;fontFamily=Comic Sans MS;" parent="rDefNeOe9VdLaESxxnFH-219" source="rDefNeOe9VdLaESxxnFH-196" target="rDefNeOe9VdLaESxxnFH-201" edge="1">
          <mxGeometry relative="1" as="geometry" />
        </mxCell>
        <mxCell id="rDefNeOe9VdLaESxxnFH-217" style="rounded=0;orthogonalLoop=1;jettySize=auto;html=1;exitX=1;exitY=0.5;exitDx=0;exitDy=0;entryX=0;entryY=0.5;entryDx=0;entryDy=0;fontSize=12;fontColor=#000000;endArrow=open;endFill=0;fillColor=#d5e8d4;strokeColor=#82b366;fontFamily=Comic Sans MS;" parent="rDefNeOe9VdLaESxxnFH-219" source="rDefNeOe9VdLaESxxnFH-214" target="rDefNeOe9VdLaESxxnFH-197" edge="1">
          <mxGeometry relative="1" as="geometry" />
        </mxCell>
        <mxCell id="rDefNeOe9VdLaESxxnFH-218" style="edgeStyle=orthogonalEdgeStyle;rounded=0;orthogonalLoop=1;jettySize=auto;html=1;exitX=0;exitY=0.5;exitDx=0;exitDy=0;entryX=1;entryY=0.5;entryDx=0;entryDy=0;fontSize=12;fontColor=#000000;endArrow=open;endFill=0;curved=1;fillColor=#f8cecc;strokeColor=#b85450;fontFamily=Comic Sans MS;" parent="rDefNeOe9VdLaESxxnFH-219" source="rDefNeOe9VdLaESxxnFH-214" target="rDefNeOe9VdLaESxxnFH-189" edge="1">
          <mxGeometry relative="1" as="geometry" />
        </mxCell>
        <mxCell id="rDefNeOe9VdLaESxxnFH-214" value="T extends ReadonlyArray&amp;lt;infer V&amp;gt;" style="rounded=0;whiteSpace=wrap;html=1;fontSize=12;fillColor=#fff2cc;strokeColor=#d6b656;container=0;fontFamily=Comic Sans MS;" parent="rDefNeOe9VdLaESxxnFH-219" vertex="1">
          <mxGeometry x="306" y="113" width="206.5" height="34" as="geometry" />
        </mxCell>
        <mxCell id="H39mZg0UehCR3N81K4pK-5" style="edgeStyle=orthogonalEdgeStyle;rounded=0;orthogonalLoop=1;jettySize=auto;html=1;exitX=1;exitY=0.5;exitDx=0;exitDy=0;entryX=1;entryY=0.5;entryDx=0;entryDy=0;fillColor=#d5e8d4;strokeColor=#82b366;endArrow=open;endFill=0;curved=1;" edge="1" parent="rDefNeOe9VdLaESxxnFH-219" source="H39mZg0UehCR3N81K4pK-1" target="rDefNeOe9VdLaESxxnFH-195">
          <mxGeometry relative="1" as="geometry" />
        </mxCell>
        <mxCell id="H39mZg0UehCR3N81K4pK-6" style="edgeStyle=orthogonalEdgeStyle;rounded=0;orthogonalLoop=1;jettySize=auto;html=1;exitX=0.5;exitY=1;exitDx=0;exitDy=0;entryX=1;entryY=0.5;entryDx=0;entryDy=0;fillColor=#f8cecc;strokeColor=#b85450;curved=1;endArrow=open;endFill=0;" edge="1" parent="rDefNeOe9VdLaESxxnFH-219" source="H39mZg0UehCR3N81K4pK-1" target="rDefNeOe9VdLaESxxnFH-193">
          <mxGeometry relative="1" as="geometry">
            <Array as="points">
              <mxPoint x="489" y="59" />
              <mxPoint x="525" y="59" />
              <mxPoint x="525" y="83" />
            </Array>
          </mxGeometry>
        </mxCell>
        <mxCell id="H39mZg0UehCR3N81K4pK-1" value="P extends keyof T" style="rounded=0;whiteSpace=wrap;html=1;fontSize=12;fillColor=#fff2cc;strokeColor=#d6b656;container=0;fontFamily=Comic Sans MS;" vertex="1" parent="rDefNeOe9VdLaESxxnFH-219">
          <mxGeometry x="406" y="13" width="166" height="34" as="geometry" />
        </mxCell>
        <mxCell id="rDefNeOe9VdLaESxxnFH-155" value="" style="group;fontFamily=Comic Sans MS;" parent="1" vertex="1" connectable="0">
          <mxGeometry x="502" y="1014" width="600" height="310" as="geometry" />
        </mxCell>
        <mxCell id="rDefNeOe9VdLaESxxnFH-156" value="" style="rounded=0;whiteSpace=wrap;html=1;container=0;fontFamily=Comic Sans MS;" parent="rDefNeOe9VdLaESxxnFH-155" vertex="1">
          <mxGeometry width="600" height="310" as="geometry" />
        </mxCell>
        <mxCell id="rDefNeOe9VdLaESxxnFH-157" value="&lt;div style=&quot;background-color: rgb(255, 255, 254); font-size: 14px; line-height: 19px;&quot;&gt;&lt;br&gt;&lt;/div&gt;" style="text;html=1;align=center;verticalAlign=middle;resizable=0;points=[];autosize=1;strokeColor=none;fillColor=none;fontSize=12;container=0;fontFamily=Comic Sans MS;" parent="rDefNeOe9VdLaESxxnFH-155" vertex="1">
          <mxGeometry x="44" y="57" width="18" height="31" as="geometry" />
        </mxCell>
        <mxCell id="rDefNeOe9VdLaESxxnFH-158" value="&lt;div style=&quot;background-color: rgb(255, 255, 254); font-size: 14px; line-height: 19px;&quot;&gt;&lt;br&gt;&lt;/div&gt;" style="text;html=1;align=center;verticalAlign=middle;resizable=0;points=[];autosize=1;strokeColor=none;fillColor=none;fontSize=12;container=0;fontFamily=Comic Sans MS;" parent="rDefNeOe9VdLaESxxnFH-155" vertex="1">
          <mxGeometry x="43.5" y="56" width="18" height="31" as="geometry" />
        </mxCell>
        <mxCell id="rDefNeOe9VdLaESxxnFH-170" style="edgeStyle=orthogonalEdgeStyle;curved=1;rounded=0;orthogonalLoop=1;jettySize=auto;html=1;exitX=1;exitY=0.5;exitDx=0;exitDy=0;entryX=0;entryY=0.5;entryDx=0;entryDy=0;fontSize=12;fontColor=#000000;endArrow=open;endFill=0;fontFamily=Comic Sans MS;" parent="rDefNeOe9VdLaESxxnFH-155" source="rDefNeOe9VdLaESxxnFH-159" target="rDefNeOe9VdLaESxxnFH-162" edge="1">
          <mxGeometry relative="1" as="geometry">
            <Array as="points">
              <mxPoint x="262" y="80" />
              <mxPoint x="262" y="93" />
            </Array>
          </mxGeometry>
        </mxCell>
        <mxCell id="rDefNeOe9VdLaESxxnFH-159" value="T extends ReadonlyArray&amp;lt;infer V&amp;gt;" style="rounded=0;whiteSpace=wrap;html=1;fontSize=12;fillColor=#fff2cc;strokeColor=#d6b656;container=0;fontFamily=Comic Sans MS;" parent="rDefNeOe9VdLaESxxnFH-155" vertex="1">
          <mxGeometry x="16.5" y="62" width="225" height="36" as="geometry" />
        </mxCell>
        <mxCell id="rDefNeOe9VdLaESxxnFH-160" value="{[K in TupleKey&amp;lt;T&amp;gt;]-?: ArrayPathImpl&amp;lt;K &amp;amp; string, T[K]&amp;gt;;}&lt;br&gt;[TupleKey&amp;lt;T&amp;gt;]" style="rounded=0;whiteSpace=wrap;html=1;fontSize=12;fillColor=#d5e8d4;strokeColor=#82b366;container=0;align=center;horizontal=1;fontFamily=Comic Sans MS;" parent="rDefNeOe9VdLaESxxnFH-155" vertex="1">
          <mxGeometry x="15.5" y="209" width="562.5" height="80" as="geometry" />
        </mxCell>
        <mxCell id="rDefNeOe9VdLaESxxnFH-161" style="edgeStyle=none;rounded=0;orthogonalLoop=1;jettySize=auto;html=1;exitX=0.5;exitY=1;exitDx=0;exitDy=0;fontSize=12;fontColor=#000000;endArrow=open;endFill=0;fillColor=#d5e8d4;strokeColor=#82b366;entryX=0.5;entryY=0;entryDx=0;entryDy=0;fontFamily=Comic Sans MS;" parent="rDefNeOe9VdLaESxxnFH-155" source="rDefNeOe9VdLaESxxnFH-159" target="rDefNeOe9VdLaESxxnFH-166" edge="1">
          <mxGeometry relative="1" as="geometry">
            <mxPoint x="143.5" y="111" as="targetPoint" />
          </mxGeometry>
        </mxCell>
        <mxCell id="rDefNeOe9VdLaESxxnFH-162" value="{&lt;br&gt;      [K in keyof T]-?: ArrayPathImpl&amp;lt;K &amp;amp; string, T[K]&amp;gt;;&lt;br&gt;    }[keyof T]" style="rounded=0;whiteSpace=wrap;html=1;fontSize=12;fillColor=#f8cecc;strokeColor=#b85450;container=0;fontFamily=Comic Sans MS;" parent="rDefNeOe9VdLaESxxnFH-155" vertex="1">
          <mxGeometry x="277" y="62" width="299" height="62" as="geometry" />
        </mxCell>
        <mxCell id="rDefNeOe9VdLaESxxnFH-164" value="ArrayPath&amp;lt;T&amp;gt;" style="text;html=1;align=center;verticalAlign=middle;resizable=0;points=[];autosize=1;strokeColor=none;fillColor=none;fontSize=16;fontColor=#000000;fontFamily=Comic Sans MS;" parent="rDefNeOe9VdLaESxxnFH-155" vertex="1">
          <mxGeometry width="118" height="31" as="geometry" />
        </mxCell>
        <mxCell id="rDefNeOe9VdLaESxxnFH-165" style="edgeStyle=orthogonalEdgeStyle;curved=1;rounded=0;orthogonalLoop=1;jettySize=auto;html=1;exitX=0.5;exitY=1;exitDx=0;exitDy=0;fontSize=16;fontColor=#000000;endArrow=open;endFill=0;fillColor=#d5e8d4;strokeColor=#82b366;entryX=0.25;entryY=0;entryDx=0;entryDy=0;fontFamily=Comic Sans MS;" parent="rDefNeOe9VdLaESxxnFH-155" source="rDefNeOe9VdLaESxxnFH-166" target="rDefNeOe9VdLaESxxnFH-160" edge="1">
          <mxGeometry relative="1" as="geometry" />
        </mxCell>
        <mxCell id="rDefNeOe9VdLaESxxnFH-166" value="IsTuple&amp;lt;T&amp;gt; extends true" style="rounded=0;whiteSpace=wrap;html=1;fontSize=12;fillColor=#fff2cc;strokeColor=#d6b656;container=0;fontFamily=Comic Sans MS;" parent="rDefNeOe9VdLaESxxnFH-155" vertex="1">
          <mxGeometry x="15.5" y="138" width="226" height="34" as="geometry" />
        </mxCell>
        <mxCell id="rDefNeOe9VdLaESxxnFH-167" value="ArrayPathImpl&amp;lt;ArrayKey, V&amp;gt;" style="rounded=0;whiteSpace=wrap;html=1;fontSize=12;fillColor=#f8cecc;strokeColor=#b85450;container=0;fontFamily=Comic Sans MS;" parent="rDefNeOe9VdLaESxxnFH-155" vertex="1">
          <mxGeometry x="275.5" y="138" width="302" height="36" as="geometry" />
        </mxCell>
        <mxCell id="rDefNeOe9VdLaESxxnFH-168" style="edgeStyle=orthogonalEdgeStyle;curved=1;rounded=0;orthogonalLoop=1;jettySize=auto;html=1;exitX=1;exitY=0.5;exitDx=0;exitDy=0;entryX=0;entryY=0.5;entryDx=0;entryDy=0;fontSize=16;fontColor=#000000;endArrow=open;endFill=0;fillColor=#f8cecc;strokeColor=#b85450;fontFamily=Comic Sans MS;" parent="rDefNeOe9VdLaESxxnFH-155" source="rDefNeOe9VdLaESxxnFH-166" target="rDefNeOe9VdLaESxxnFH-167" edge="1">
          <mxGeometry relative="1" as="geometry" />
        </mxCell>
        <mxCell id="rDefNeOe9VdLaESxxnFH-221" style="edgeStyle=orthogonalEdgeStyle;curved=1;rounded=0;orthogonalLoop=1;jettySize=auto;html=1;exitX=1;exitY=0.5;exitDx=0;exitDy=0;entryX=0.002;entryY=0.495;entryDx=0;entryDy=0;entryPerimeter=0;fontSize=12;fontColor=#000000;endArrow=open;endFill=0;fontFamily=Comic Sans MS;" parent="1" source="rDefNeOe9VdLaESxxnFH-156" target="rDefNeOe9VdLaESxxnFH-180" edge="1">
          <mxGeometry relative="1" as="geometry" />
        </mxCell>
        <mxCell id="rDefNeOe9VdLaESxxnFH-222" style="edgeStyle=orthogonalEdgeStyle;curved=1;rounded=0;orthogonalLoop=1;jettySize=auto;html=1;exitX=1;exitY=0.5;exitDx=0;exitDy=0;fontSize=12;fontColor=#000000;endArrow=open;endFill=0;fontFamily=Comic Sans MS;" parent="1" source="rDefNeOe9VdLaESxxnFH-88" target="rDefNeOe9VdLaESxxnFH-180" edge="1">
          <mxGeometry relative="1" as="geometry" />
        </mxCell>
        <mxCell id="rDefNeOe9VdLaESxxnFH-223" style="edgeStyle=orthogonalEdgeStyle;curved=1;rounded=0;orthogonalLoop=1;jettySize=auto;html=1;exitX=1;exitY=0.5;exitDx=0;exitDy=0;entryX=0;entryY=0.5;entryDx=0;entryDy=0;fontSize=12;fontColor=#000000;endArrow=open;endFill=0;fontFamily=Comic Sans MS;" parent="1" source="rDefNeOe9VdLaESxxnFH-88" target="rDefNeOe9VdLaESxxnFH-187" edge="1">
          <mxGeometry relative="1" as="geometry" />
        </mxCell>
        <mxCell id="rDefNeOe9VdLaESxxnFH-224" style="edgeStyle=orthogonalEdgeStyle;curved=1;rounded=0;orthogonalLoop=1;jettySize=auto;html=1;exitX=0;exitY=0.5;exitDx=0;exitDy=0;entryX=0;entryY=0.5;entryDx=0;entryDy=0;fontSize=12;fontColor=#000000;endArrow=open;endFill=0;fontFamily=Comic Sans MS;" parent="1" source="rDefNeOe9VdLaESxxnFH-1" target="rDefNeOe9VdLaESxxnFH-115" edge="1">
          <mxGeometry relative="1" as="geometry">
            <Array as="points">
              <mxPoint x="-87" y="689" />
              <mxPoint x="-87" y="1118" />
            </Array>
          </mxGeometry>
        </mxCell>
        <mxCell id="rDefNeOe9VdLaESxxnFH-225" style="edgeStyle=orthogonalEdgeStyle;curved=1;rounded=0;orthogonalLoop=1;jettySize=auto;html=1;exitX=0;exitY=0.5;exitDx=0;exitDy=0;entryX=0;entryY=0.5;entryDx=0;entryDy=0;fontSize=12;fontColor=#000000;endArrow=open;endFill=0;fontFamily=Comic Sans MS;" parent="1" source="rDefNeOe9VdLaESxxnFH-1" target="rDefNeOe9VdLaESxxnFH-123" edge="1">
          <mxGeometry relative="1" as="geometry">
            <Array as="points">
              <mxPoint x="-99" y="688" />
              <mxPoint x="-99" y="1306" />
            </Array>
          </mxGeometry>
        </mxCell>
        <mxCell id="rDefNeOe9VdLaESxxnFH-226" style="edgeStyle=orthogonalEdgeStyle;curved=1;rounded=0;orthogonalLoop=1;jettySize=auto;html=1;exitX=1;exitY=0.5;exitDx=0;exitDy=0;entryX=0.5;entryY=0;entryDx=0;entryDy=0;fontSize=12;fontColor=#000000;endArrow=open;endFill=0;fontFamily=Comic Sans MS;" parent="1" source="rDefNeOe9VdLaESxxnFH-112" target="rDefNeOe9VdLaESxxnFH-162" edge="1">
          <mxGeometry relative="1" as="geometry">
            <Array as="points">
              <mxPoint x="468" y="1198" />
              <mxPoint x="468" y="980" />
              <mxPoint x="929" y="980" />
            </Array>
          </mxGeometry>
        </mxCell>
        <mxCell id="rDefNeOe9VdLaESxxnFH-227" style="edgeStyle=orthogonalEdgeStyle;curved=1;rounded=0;orthogonalLoop=1;jettySize=auto;html=1;exitX=0.5;exitY=1;exitDx=0;exitDy=0;fontSize=12;fontColor=#000000;endArrow=open;endFill=0;fontFamily=Comic Sans MS;" parent="1" source="rDefNeOe9VdLaESxxnFH-172" target="rDefNeOe9VdLaESxxnFH-148" edge="1">
          <mxGeometry relative="1" as="geometry" />
        </mxCell>
        <mxCell id="rDefNeOe9VdLaESxxnFH-231" style="edgeStyle=orthogonalEdgeStyle;curved=1;rounded=0;orthogonalLoop=1;jettySize=auto;html=1;exitX=0.5;exitY=1;exitDx=0;exitDy=0;entryX=0.091;entryY=-0.01;entryDx=0;entryDy=0;entryPerimeter=0;fontSize=12;fontColor=#000000;endArrow=open;endFill=0;fontFamily=Comic Sans MS;" parent="1" source="rDefNeOe9VdLaESxxnFH-88" target="rDefNeOe9VdLaESxxnFH-149" edge="1">
          <mxGeometry relative="1" as="geometry">
            <Array as="points">
              <mxPoint x="797" y="986" />
              <mxPoint x="1234" y="986" />
            </Array>
          </mxGeometry>
        </mxCell>
        <mxCell id="rDefNeOe9VdLaESxxnFH-104" style="edgeStyle=orthogonalEdgeStyle;curved=1;rounded=0;orthogonalLoop=1;jettySize=auto;html=1;exitX=1;exitY=0.5;exitDx=0;exitDy=0;fontSize=16;fontColor=#000000;endArrow=open;endFill=0;fontFamily=Comic Sans MS;" parent="1" source="rDefNeOe9VdLaESxxnFH-59" target="rDefNeOe9VdLaESxxnFH-94" edge="1">
          <mxGeometry relative="1" as="geometry">
            <Array as="points">
              <mxPoint x="450" y="959" />
              <mxPoint x="794" y="959" />
            </Array>
          </mxGeometry>
        </mxCell>
      </root>
    </mxGraphModel>
  </diagram>
</mxfile>
